<svg width="155" height="21" viewBox="0 0 155 21" fill="none" xmlns="http://www.w3.org/2000/svg">
<path d="M13.0103 1.29336L14.7615 4.71848C15.0273 5.22708 15.512 5.58468 16.0748 5.66417L19.7726 6.18075C21.7505 6.45888 22.5166 8.94627 21.0547 10.329L18.5218 12.7131C18.084 13.1263 17.8807 13.7382 17.9902 14.3342L18.6078 17.8308C18.9517 19.7779 16.9661 21.2958 15.2227 20.4057L11.6891 18.6176C11.1967 18.3713 10.6181 18.3713 10.1256 18.6176L6.59204 20.4057C4.8487 21.2878 2.86301 19.7779 3.20699 17.8308L3.82458 14.3342C3.93403 13.7382 3.73077 13.1263 3.29298 12.7131L0.760057 10.329C-0.701845 8.95421 0.0642822 6.45888 2.04216 6.18075L5.73991 5.66417C6.30276 5.58468 6.7953 5.23502 7.05326 4.71848L8.80444 1.29336C9.69566 -0.43112 12.1269 -0.43112 13.0103 1.29336Z" fill="#F3A720"/>
<path d="M46.3053 1.29336L48.0564 4.71848C48.3222 5.22708 48.8069 5.58468 49.3698 5.66417L53.0675 6.18075C55.0454 6.45888 55.8115 8.94627 54.3496 10.329L51.8167 12.7131C51.3789 13.1263 51.1756 13.7382 51.2851 14.3342L51.9027 17.8308C52.2467 19.7779 50.261 21.2958 48.5177 20.4057L44.9841 18.6176C44.4916 18.3713 43.913 18.3713 43.4206 18.6176L39.887 20.4057C38.1436 21.2878 36.1579 19.7779 36.5019 17.8308L37.1195 14.3342C37.229 13.7382 37.0257 13.1263 36.5879 12.7131L34.055 10.329C32.5931 8.95421 33.3592 6.45888 35.3371 6.18075L39.0348 5.66417C39.5977 5.58468 40.0902 5.23502 40.3482 4.71848L42.0994 1.29336C42.9906 -0.43112 45.4218 -0.43112 46.3053 1.29336Z" fill="#F3A720"/>
<path d="M79.6021 1.29336L81.3533 4.71848C81.6191 5.22708 82.1038 5.58468 82.6666 5.66417L86.3644 6.18075C88.3423 6.45888 89.1084 8.94627 87.6465 10.329L85.1136 12.7131C84.6758 13.1263 84.4725 13.7382 84.582 14.3342L85.1996 17.8308C85.5435 19.7779 83.5579 21.2958 81.8145 20.4057L78.2809 18.6176C77.7885 18.3713 77.2099 18.3713 76.7174 18.6176L73.1838 20.4057C71.4405 21.2878 69.4548 19.7779 69.7988 17.8308L70.4164 14.3342C70.5258 13.7382 70.3226 13.1263 69.8848 12.7131L67.3519 10.329C65.89 8.95421 66.6561 6.45888 68.634 6.18075L72.3317 5.66417C72.8946 5.58468 73.3871 5.23502 73.6451 4.71848L75.3962 1.29336C76.2875 -0.43112 78.7187 -0.43112 79.6021 1.29336Z" fill="#F3A720"/>
<path d="M112.897 1.29336L114.648 4.71848C114.914 5.22708 115.399 5.58468 115.962 5.66417L119.659 6.18075C121.637 6.45888 122.403 8.94627 120.941 10.329L118.408 12.7131C117.971 13.1263 117.767 13.7382 117.877 14.3342L118.494 17.8308C118.838 19.7779 116.853 21.2958 115.109 20.4057L111.576 18.6176C111.083 18.3713 110.505 18.3713 110.012 18.6176L106.479 20.4057C104.735 21.2878 102.75 19.7779 103.094 17.8308L103.711 14.3342C103.821 13.7382 103.617 13.1263 103.18 12.7131L100.647 10.329C99.1849 8.95421 99.951 6.45888 101.929 6.18075L105.627 5.66417C106.189 5.58468 106.682 5.23502 106.94 4.71848L108.691 1.29336C109.582 -0.43112 112.014 -0.43112 112.897 1.29336Z" fill="#F3A720"/>
<path d="M146.196 1.29336L147.947 4.71848C148.213 5.22708 148.698 5.58468 149.26 5.66417L152.958 6.18075C154.936 6.45888 155.702 8.94627 154.24 10.329L151.707 12.7131C151.27 13.1263 151.066 13.7382 151.176 14.3342L151.793 17.8308C152.137 19.7779 150.152 21.2958 148.408 20.4057L144.875 18.6176C144.382 18.3713 143.804 18.3713 143.311 18.6176L139.778 20.4057C138.034 21.2878 136.049 19.7779 136.393 17.8308L137.01 14.3342C137.12 13.7382 136.916 13.1263 136.479 12.7131L133.946 10.329C132.484 8.95421 133.25 6.45888 135.228 6.18075L138.925 5.66417C139.488 5.58468 139.981 5.23502 140.239 4.71848L141.99 1.29336C142.881 -0.43112 145.312 -0.43112 146.196 1.29336Z" fill="black" fill-opacity="0.09"/>
</svg>
