<svg width="18" height="19" viewBox="0 0 18 19" fill="none" xmlns="http://www.w3.org/2000/svg">
<path d="M10.9552 2.00159H5.92711C5.57915 2.00159 5.30078 1.72322 5.30078 1.37526C5.30078 1.0273 5.57915 0.740234 5.92711 0.740234H10.9552C11.3031 0.740234 11.5815 1.0186 11.5815 1.36656C11.5815 1.71453 11.3031 2.00159 10.9552 2.00159Z" fill="#2E2E2E"/>
<path d="M15.3742 12.0488H12.8167C11.7119 12.0488 11.0508 12.71 11.0508 13.8147V16.3722C11.0508 17.477 11.7119 18.1381 12.8167 18.1381H15.3742C16.479 18.1381 17.1401 17.477 17.1401 16.3722V13.8147C17.1401 12.71 16.479 12.0488 15.3742 12.0488ZM15.1306 15.9286L14.1041 16.5201C13.8954 16.6419 13.6866 16.7028 13.4952 16.7028C13.3473 16.7028 13.2168 16.668 13.0951 16.5984C12.8167 16.4331 12.6601 16.1113 12.6601 15.685V14.502C12.6601 14.0757 12.8167 13.7538 13.0951 13.5886C13.3734 13.4233 13.7301 13.4581 14.1041 13.6668L15.1306 14.2584C15.496 14.4759 15.7048 14.7716 15.7048 15.0935C15.7048 15.4154 15.5047 15.7111 15.1306 15.9286Z" fill="#2E2E2E"/>
<path d="M10.1803 16.3728V13.8153C10.1803 12.2408 11.2416 11.1795 12.8161 11.1795H15.3736C15.5737 11.1795 15.7651 11.1969 15.9478 11.2317C15.9652 11.0229 15.9826 10.8141 15.9826 10.5967C15.9826 6.42982 12.5986 3.0459 8.44051 3.0459C4.28236 3.0459 0.898438 6.42982 0.898438 10.5967C0.898438 14.7548 4.28236 18.1387 8.44051 18.1387C9.17993 18.1387 9.88455 18.0169 10.5631 17.8256C10.3195 17.4167 10.1803 16.9296 10.1803 16.3728ZM9.09294 10.3096C9.09294 10.6663 8.79717 10.962 8.44051 10.962C8.08385 10.962 7.78809 10.6663 7.78809 10.3096V5.96007C7.78809 5.60341 8.08385 5.30765 8.44051 5.30765C8.79717 5.30765 9.09294 5.60341 9.09294 5.96007V10.3096Z" fill="#2E2E2E"/>
</svg>
