<svg width="59" height="59" viewBox="0 0 59 59" fill="none" xmlns="http://www.w3.org/2000/svg">
<rect x="0.5" y="0.5" width="58" height="58" rx="29" fill="white" fill-opacity="0.01" stroke="#B7BFD1"/>
<path d="M29.7979 39.9283C27.0372 39.9283 24.2764 39.4898 21.6578 38.613C20.6625 38.2694 19.9042 37.5703 19.5724 36.658C19.2288 35.7456 19.3473 34.7385 19.8923 33.838L21.2549 31.5748C21.5393 31.1009 21.8 30.153 21.8 29.5961V26.1718C21.8 21.764 25.3902 18.1738 29.7979 18.1738C34.2057 18.1738 37.7959 21.764 37.7959 26.1718V29.5961C37.7959 30.1411 38.0566 31.1009 38.3409 31.5867L39.6917 33.838C40.2012 34.6911 40.296 35.7219 39.9524 36.658C39.6088 37.594 38.8623 38.305 37.9262 38.613C35.3195 39.4898 32.5587 39.9283 29.7979 39.9283ZM29.7979 19.9512C26.3736 19.9512 23.5773 22.7356 23.5773 26.1718V29.5961C23.5773 30.461 23.2218 31.7407 22.7834 32.4872L21.4208 34.7503C21.1601 35.1887 21.0891 35.6508 21.2431 36.0418C21.3853 36.4447 21.7407 36.7528 22.2265 36.9187C27.1794 38.5775 32.4284 38.5775 37.3812 36.9187C37.8077 36.7765 38.1395 36.4565 38.2935 36.03C38.4476 35.6034 38.412 35.1413 38.1751 34.7503L36.8124 32.4872C36.3622 31.717 36.0186 30.4492 36.0186 29.5842V26.1718C36.0186 22.7356 33.2341 19.9512 29.7979 19.9512Z" fill="#5D6371"/>
<path d="M32.0011 20.2703C31.9181 20.2703 31.8352 20.2584 31.7523 20.2347C31.4086 20.1399 31.0769 20.0688 30.757 20.0215C29.7498 19.8911 28.7782 19.9622 27.8658 20.2347C27.5341 20.3414 27.1786 20.2347 26.9535 19.9859C26.7284 19.7371 26.6573 19.3816 26.7876 19.0617C27.2734 17.8176 28.4583 17 29.8091 17C31.1598 17 32.3447 17.8057 32.8305 19.0617C32.949 19.3816 32.8897 19.7371 32.6646 19.9859C32.4869 20.1755 32.2381 20.2703 32.0011 20.2703Z" fill="#5D6371"/>
<path d="M29.7988 42.6308C28.6257 42.6308 27.4882 42.1569 26.6588 41.3274C25.8294 40.498 25.3555 39.3605 25.3555 38.1875H27.1328C27.1328 38.8866 27.4171 39.5738 27.9148 40.0715C28.4124 40.5691 29.0997 40.8535 29.7988 40.8535C31.268 40.8535 32.4647 39.6568 32.4647 38.1875H34.2421C34.2421 40.6402 32.2515 42.6308 29.7988 42.6308Z" fill="#5D6371"/>
</svg>
