<svg width="26" height="20" viewBox="0 0 26 20" fill="none" xmlns="http://www.w3.org/2000/svg">
<path d="M18.6839 19.25H7.01209C2.75187 19.25 0.300781 17.15 0.300781 13.5V6.5C0.300781 2.85 2.75187 0.75 7.01209 0.75H18.6839C22.9441 0.75 25.3952 2.85 25.3952 6.5V13.5C25.3952 17.15 22.9441 19.25 18.6839 19.25ZM7.01209 2.25C3.67394 2.25 2.05156 3.64 2.05156 6.5V13.5C2.05156 16.36 3.67394 17.75 7.01209 17.75H18.6839C22.0221 17.75 23.6444 16.36 23.6444 13.5V6.5C23.6444 3.64 22.0221 2.25 18.6839 2.25H7.01209Z" fill="#5D6371"/>
<path d="M12.8473 10.87C11.8669 10.87 10.8748 10.61 10.1161 10.08L6.46279 7.57997C6.08929 7.31997 6.01926 6.84997 6.32272 6.52997C6.62619 6.20997 7.17477 6.14997 7.54827 6.40997L11.2016 8.91C12.0886 9.52 13.5943 9.52 14.4814 8.91L18.1346 6.40997C18.5081 6.14997 19.0684 6.19997 19.3602 6.52997C19.6637 6.84997 19.6053 7.32997 19.2201 7.57997L15.5668 10.08C14.8198 10.61 13.8277 10.87 12.8473 10.87Z" fill="#5D6371"/>
</svg>
