<svg width="30" height="30" viewBox="0 0 30 30" fill="none" xmlns="http://www.w3.org/2000/svg">
<path d="M28.6904 14.3271C28.9536 14.5903 29.1198 14.9504 29.1198 15.366C29.1198 16.1694 28.4549 16.8343 27.6515 16.8343L4.93437 16.8342C4.13095 16.8342 3.46606 16.1694 3.46606 15.3659C3.46606 14.5625 4.13096 13.8976 4.93437 13.8976L27.6515 13.8977C28.0671 13.8977 28.4272 14.0639 28.6904 14.3271Z" fill="black"/>
<path d="M10.4442 7.63465C11.0121 8.20258 11.0121 9.14451 10.4442 9.71244L4.79257 15.364L10.4442 21.0156C11.0121 21.5836 11.0121 22.5255 10.4442 23.0934C9.87624 23.6614 8.93431 23.6614 8.36638 23.0934L1.67588 16.4029C1.10796 15.835 1.10795 14.8931 1.67588 14.3251L8.36638 7.63465C8.93431 7.06672 9.87624 7.06672 10.4442 7.63465Z" fill="black"/>
</svg>
