<svg width="78" height="78" viewBox="0 0 78 78" fill="none" xmlns="http://www.w3.org/2000/svg">
<circle cx="39" cy="39" r="38.5" fill="white" fill-opacity="0.1" stroke="#7C818B"/>
<path d="M31.0497 47.0388C30.7382 47.0388 30.4267 46.9241 30.1808 46.6781C29.7054 46.2027 29.7054 45.4158 30.1808 44.9404L43.624 31.4972C44.0994 31.0218 44.8864 31.0218 45.3618 31.4972C45.8372 31.9726 45.8372 32.7595 45.3618 33.235L31.9186 46.6781C31.6727 46.9241 31.3612 47.0388 31.0497 47.0388Z" fill="#B7BFD1"/>
<path d="M45.8081 40.2017C45.1359 40.2017 44.5785 39.6443 44.5785 38.9722V32.2833H37.8897C37.2176 32.2833 36.6602 31.7259 36.6602 31.0538C36.6602 30.3816 37.2176 29.8242 37.8897 29.8242H45.8081C46.4803 29.8242 47.0377 30.3816 47.0377 31.0538V38.9722C47.0377 39.6443 46.4803 40.2017 45.8081 40.2017Z" fill="#B7BFD1"/>
</svg>
