<svg width="26" height="25" viewBox="0 0 26 25" fill="none" xmlns="http://www.w3.org/2000/svg">
<path fill-rule="evenodd" clip-rule="evenodd" d="M11.7266 1.875C9.90657 1.875 8.41201 3.24797 8.25177 5H17.7389C17.5787 3.24797 16.0841 1.875 14.2641 1.875H11.7266ZM11.7266 0C8.85506 0 6.50777 2.21145 6.3436 5H4.74858C2.12299 5 -0.00222372 7.10259 0.0083703 9.689L0.000542249 16.0518L0.00049143 16.093C-0.001196 17.4596 -0.00252811 18.5428 0.0688135 19.4158C0.141779 20.3084 0.295361 21.0638 0.651383 21.7536C1.22865 22.8723 2.1508 23.7818 3.28544 24.3519C3.9852 24.7035 4.75174 24.8558 5.65773 24.9288C6.54369 25 7.64295 25 9.03011 25H9.07208H16.9285H16.9703C18.3559 25 19.4542 25 20.3392 24.9288C21.2444 24.856 22.0102 24.704 22.7095 24.3529C23.8434 23.7836 24.7654 22.8754 25.3432 21.7581C25.6994 21.0691 25.8537 20.3146 25.9277 19.4229C26 18.5509 26 17.469 26 16.1039V16.0625V9.6875C26 7.09866 23.8699 5 21.2422 5H19.6471C19.483 2.21145 17.1357 0 14.2641 0H11.7266ZM1.90908 11.6472L1.90366 16.054C1.90192 17.4711 1.90143 18.4776 1.96579 19.2653C2.02928 20.0419 2.15116 20.5227 2.3478 20.9037C2.74278 21.6691 3.37372 22.2915 4.15005 22.6816C4.53656 22.8757 5.02451 22.9965 5.81277 23.0599C6.61214 23.1244 7.63367 23.125 9.07208 23.125H16.9285C18.3653 23.125 19.3856 23.1244 20.1842 23.06C20.9717 22.9966 21.4592 22.8761 21.8455 22.6822C22.6213 22.2927 23.2521 21.6712 23.6475 20.9069C23.8443 20.5263 23.9666 20.046 24.0309 19.2703C24.0961 18.4835 24.0969 17.4781 24.0969 16.0625V11.6507C20.544 14.2694 16.7994 15.6173 13.005 15.6163C9.20951 15.6152 5.46356 14.2646 1.90908 11.6472ZM24.0673 9.2808C23.8672 7.92022 22.6787 6.875 21.2422 6.875H4.74858C3.31594 6.875 2.13221 7.92091 1.93905 9.27864C5.57932 12.2887 9.32334 13.7402 13.0055 13.7413C16.6868 13.7423 20.4292 12.2933 24.0673 9.2808ZM13.9469 17.8125C13.9469 17.2948 13.5209 16.875 12.9954 16.875C12.4698 16.875 12.0438 17.2948 12.0438 17.8125V20.3125C12.0438 20.8302 12.4698 21.25 12.9954 21.25C13.5209 21.25 13.9469 20.8302 13.9469 20.3125V17.8125Z" fill="#5D6371"/>
</svg>
