<svg width="29" height="28" viewBox="0 0 29 28" fill="none" xmlns="http://www.w3.org/2000/svg">
<path d="M9.44767 27.9883C9.07651 27.9883 8.69207 27.8955 8.34742 27.7099C7.59183 27.3122 7.12791 26.5169 7.12791 25.6685V23.7863C3.12465 23.3754 0.5 20.4325 0.5 16.2171V8.26369C0.5 3.70369 3.56209 0.641602 8.12209 0.641602H21.3779C25.9379 0.641602 29 3.70369 29 8.26369V16.2171C29 20.7771 25.9379 23.8392 21.3779 23.8392H16.3805L10.7334 27.604C10.349 27.8559 9.89837 27.9883 9.44767 27.9883ZM8.12209 2.6167C4.70209 2.6167 2.48837 4.83043 2.48837 8.25043V16.204C2.48837 19.624 4.70209 21.8377 8.12209 21.8377C8.66558 21.8377 9.11628 22.2884 9.11628 22.8319V25.6554C9.11628 25.8277 9.22233 25.9072 9.2886 25.947C9.3549 25.9868 9.48746 26.0266 9.63327 25.9338L15.5321 22.01C15.6912 21.904 15.89 21.8377 16.0888 21.8377H21.3912C24.8112 21.8377 27.0249 19.624 27.0249 16.204V8.25043C27.0249 4.83043 24.8112 2.6167 21.3912 2.6167H8.12209Z" fill="#5D6371"/>
<path d="M14.7493 14.4545C14.2058 14.4545 13.7551 14.0038 13.7551 13.4603V13.1819C13.7551 11.6443 14.8818 10.8887 15.306 10.597C15.7965 10.2657 15.9556 10.0403 15.9556 9.69567C15.9556 9.03288 15.4121 8.48935 14.7493 8.48935C14.0865 8.48935 13.543 9.03288 13.543 9.69567C13.543 10.2392 13.0923 10.6899 12.5488 10.6899C12.0054 10.6899 11.5547 10.2392 11.5547 9.69567C11.5547 7.93264 12.9863 6.50098 14.7493 6.50098C16.5123 6.50098 17.9439 7.93264 17.9439 9.69567C17.9439 11.2068 16.8304 11.9624 16.4195 12.2408C15.9025 12.5854 15.7435 12.8108 15.7435 13.1819V13.4603C15.7435 14.017 15.2928 14.4545 14.7493 14.4545Z" fill="#5D6371"/>
<path d="M14.752 17.755C14.1953 17.755 13.7578 17.3043 13.7578 16.7608C13.7578 16.2173 14.2085 15.7666 14.752 15.7666C15.2955 15.7666 15.7462 16.2173 15.7462 16.7608C15.7462 17.3043 15.3087 17.755 14.752 17.755Z" fill="#5D6371"/>
</svg>
