<svg width="34" height="34" viewBox="0 0 34 34" fill="none" xmlns="http://www.w3.org/2000/svg">
<g clip-path="url(#clip0_24861_4441)">
<path d="M0.000550997 21.2618C0.000550997 18.592 -0.00113643 15.9223 0.00139471 13.2525C0.00266028 11.6195 0.662867 10.317 1.98412 9.3676C2.77932 8.79626 3.6821 8.54408 4.65785 8.54492C7.03375 8.5462 9.41008 8.54492 11.786 8.54662C12.3411 8.54662 12.6196 8.80135 12.6542 9.33115C12.6769 9.67954 12.3816 10.0504 12.0344 10.0589C11.1578 10.0805 10.2808 10.0864 9.40375 10.089C7.75175 10.0936 6.10018 10.0805 4.44819 10.0962C3.01177 10.1102 1.67828 11.341 1.56733 12.7753C1.50911 13.5267 1.52725 14.2846 1.52683 15.0398C1.52303 18.9951 1.5243 22.9504 1.5243 26.9057C1.5243 27.7249 1.52092 28.5442 1.52936 29.3635C1.54708 31.0966 2.86285 32.441 4.58909 32.4533C7.06328 32.4715 9.5379 32.4618 12.0125 32.4626C14.8242 32.4635 17.6363 32.4592 20.448 32.4656C21.1588 32.4673 21.8317 32.3545 22.4294 31.9405C23.2769 31.353 23.7688 30.5426 23.7853 29.5102C23.8157 27.5825 23.7958 25.6536 23.7971 23.7256C23.7971 23.1699 23.7971 22.6143 23.7971 22.0586C23.7971 21.6276 24.1046 21.2953 24.5206 21.2766C24.9597 21.2571 25.2711 21.5271 25.3031 21.9794C25.3255 22.2951 25.3267 22.6126 25.3272 22.9292C25.3293 25.0412 25.309 27.1532 25.3339 29.2648C25.3592 31.4136 23.9975 33.1564 22.1915 33.763C21.5056 33.9931 20.8002 34.0016 20.0894 34.0007C16.1387 33.9969 12.1876 33.999 8.23689 33.9986C7.00675 33.9986 5.77662 34.0029 4.54648 33.9961C2.54815 33.9851 0.766222 32.655 0.21148 30.727C0.0807039 30.2726 0.0140504 29.7848 0.0102537 29.3118C-0.00788615 27.0307 0.00561328 24.7492 0.00772257 22.4681C0.00772257 22.0663 0.00772257 21.6645 0.00772257 21.2622C0.00561328 21.2622 0.003504 21.2622 0.000972854 21.2622L0.000550997 21.2618Z" fill="#5D6371"/>
<path d="M18.4414 9.281C18.4655 9.00805 18.6215 8.81605 18.9008 8.71306C19.8677 8.35661 20.8312 7.99041 21.8002 7.64075C22.3305 7.44917 22.6912 7.1101 22.884 6.5714C23.232 5.59784 23.5986 4.63148 23.9563 3.66131C24.0795 3.3269 24.2664 3.17347 24.5634 3.17093C24.8507 3.16839 25.0418 3.31334 25.1633 3.64055C25.5219 4.60393 25.8851 5.56563 26.2302 6.5341C26.4288 7.0923 26.7916 7.45087 27.3498 7.6488C28.3213 7.9938 29.2844 8.36466 30.2492 8.72832C30.5458 8.84021 30.6883 9.04874 30.6812 9.33483C30.6748 9.60312 30.5196 9.80657 30.234 9.91253C29.2536 10.2758 28.2741 10.6403 27.292 10.9984C26.7849 11.1832 26.4381 11.5197 26.2525 12.0309C25.8948 13.0172 25.5303 14.0009 25.1692 14.9863C25.0557 15.2957 24.8427 15.4665 24.5697 15.4653C24.2778 15.4636 24.0774 15.3046 23.9593 14.9766C23.7041 14.2679 23.4556 13.5567 23.1945 12.8502C23.051 12.4623 22.9051 12.0733 22.7279 11.7003C22.5566 11.34 22.228 11.1345 21.869 10.9984C21.1088 10.7106 20.3419 10.4406 19.5783 10.1626C19.3281 10.0715 19.0767 9.98288 18.8304 9.88243C18.5819 9.78114 18.4372 9.55692 18.4418 9.28185L18.4414 9.281Z" fill="#5D6371"/>
<path d="M27.6876 3.15126C27.6998 3.01055 27.7804 2.91137 27.9246 2.85839C28.4233 2.67444 28.9202 2.48584 29.4201 2.30528C29.6935 2.20653 29.8795 2.03148 29.9791 1.75386C30.1584 1.25161 30.3478 0.753179 30.5321 0.253048C30.5958 0.0805455 30.692 0.00128749 30.8452 1.59718e-05C30.9932 -0.00125555 31.0919 0.0733403 31.1544 0.242452C31.3392 0.739192 31.5265 1.23551 31.7045 1.73479C31.807 2.02258 31.9943 2.20737 32.282 2.30994C32.7832 2.48796 33.2797 2.67911 33.7775 2.86687C33.9306 2.92451 34.004 3.03217 34.0002 3.17966C33.9969 3.31826 33.9171 3.42295 33.7695 3.47762C33.2641 3.66496 32.7587 3.85314 32.2521 4.03751C31.9905 4.13288 31.8116 4.30623 31.7159 4.56986C31.5311 5.07846 31.3434 5.5858 31.1573 6.09398C31.0987 6.25335 30.989 6.34193 30.8481 6.34108C30.6975 6.34023 30.5942 6.25843 30.5334 6.0889C30.4018 5.72312 30.2735 5.3565 30.139 4.992C30.0651 4.79195 29.9896 4.59147 29.8985 4.39905C29.8099 4.21298 29.6408 4.10702 29.4556 4.03709C29.0637 3.88875 28.668 3.7493 28.2739 3.60604C28.1449 3.559 28.0153 3.51365 27.8879 3.46152C27.7597 3.40938 27.685 3.29367 27.6876 3.15169V3.15126Z" fill="#5D6371" fill-opacity="0.8"/>
<path d="M18.75 4.70202C18.7555 4.63971 18.7909 4.59606 18.8546 4.57275C19.0748 4.49179 19.2942 4.4083 19.5148 4.32861C19.6355 4.28496 19.7177 4.20782 19.7616 4.08491C19.8409 3.86324 19.9245 3.64327 20.0059 3.42244C20.0341 3.34615 20.0763 3.3114 20.1442 3.31055C20.2096 3.31013 20.2531 3.34319 20.2809 3.41736C20.3623 3.63691 20.4454 3.85561 20.5239 4.07643C20.569 4.20358 20.6517 4.28496 20.7787 4.33031C21.0002 4.40872 21.2191 4.49349 21.4389 4.57614C21.5064 4.60157 21.5389 4.64904 21.5372 4.71431C21.5355 4.77534 21.5005 4.82154 21.4355 4.8457C21.2124 4.92835 20.9892 5.01142 20.7656 5.0928C20.65 5.13476 20.5712 5.21147 20.529 5.32803C20.4476 5.55266 20.3644 5.77645 20.2822 6.00109C20.2565 6.07144 20.2079 6.11044 20.1459 6.11001C20.0793 6.11001 20.0337 6.07356 20.0071 5.99854C19.9489 5.83706 19.8924 5.67515 19.8329 5.51452C19.8004 5.42636 19.7671 5.33778 19.7266 5.25258C19.6874 5.17036 19.6127 5.12374 19.5309 5.0928C19.3579 5.0271 19.1832 4.96564 19.0094 4.90249C18.9525 4.88172 18.8951 4.8618 18.839 4.83892C18.7825 4.81603 18.7496 4.76475 18.7504 4.70202H18.75Z" fill="#5D6371" fill-opacity="0.4"/>
<path d="M14.0247 26.3319C13.5956 26.3323 13.2333 26.0924 13.0738 25.6885C12.9705 25.427 12.8827 25.1587 12.7844 24.8951C12.6098 24.428 12.1896 24.1584 11.6948 24.161C10.9164 24.1652 10.1377 24.1618 9.35978 24.1449C8.70548 24.1305 8.29121 24.3966 8.06889 25.0095C7.98241 25.2477 7.90606 25.4906 7.80861 25.7241C7.59852 26.2255 7.02142 26.4628 6.50634 26.2704C6.02078 26.089 5.72126 25.5253 5.89971 25.0298C6.16674 24.2881 6.47132 23.56 6.76536 22.828C7.52175 20.9466 8.28193 19.0664 9.03874 17.185C9.27878 16.5882 9.80948 16.2127 10.4364 16.2042C11.0489 16.1962 11.5982 16.5717 11.842 17.1731C12.8793 19.7314 13.9074 22.2935 14.9561 24.8472C15.2801 25.6355 14.6904 26.3637 14.0255 26.3323L14.0247 26.3319ZM10.4537 22.683C10.6363 22.683 10.8186 22.6843 11.0012 22.683C11.5416 22.6784 11.8411 22.2469 11.6581 21.7311C11.3927 20.9826 11.1185 20.2366 10.8574 19.4864C10.7844 19.2766 10.6633 19.1342 10.441 19.1342C10.2267 19.1342 10.1077 19.2749 10.0381 19.4754C9.77067 20.2455 9.49351 21.0123 9.2252 21.782C9.06659 22.2372 9.36526 22.6695 9.8428 22.6826C10.0461 22.6881 10.2499 22.6835 10.4537 22.683Z" fill="#5D6371"/>
<path d="M19.5433 21.2914C19.5433 22.6045 19.5467 23.9175 19.542 25.2306C19.5399 25.9104 19.059 26.3677 18.4034 26.3296C17.8453 26.297 17.4336 25.8197 17.4336 25.2022C17.4336 23.5924 17.4344 21.9827 17.4349 20.373C17.4349 19.3846 17.4336 18.3962 17.4349 17.4078C17.4353 16.7877 17.7318 16.3588 18.2368 16.2409C18.9253 16.0799 19.5366 16.5643 19.5429 17.2887C19.5505 18.1499 19.5446 19.0112 19.5446 19.8728C19.5446 20.3458 19.5446 20.8188 19.5446 21.2918L19.5433 21.2914Z" fill="#5D6371"/>
</g>
<defs>
<clipPath id="clip0_24861_4441">
<rect width="34" height="34" fill="white"/>
</clipPath>
</defs>
</svg>
