<svg width="26" height="22" viewBox="0 0 26 22" fill="none" xmlns="http://www.w3.org/2000/svg">
<path d="M19.8513 9.75C19.3728 9.75 18.9759 9.41 18.9759 9V7C18.9759 3.85 17.9371 1.75 12.8482 1.75C7.75929 1.75 6.7205 3.85 6.7205 7V9C6.7205 9.41 6.32366 9.75 5.84511 9.75C5.36657 9.75 4.96973 9.41 4.96973 9V7C4.96973 4.1 5.78675 0.25 12.8482 0.25C19.9097 0.25 20.7267 4.1 20.7267 7V9C20.7267 9.41 20.3299 9.75 19.8513 9.75Z" fill="#5D6371"/>
<path d="M18.6839 21.75H7.01209C1.86481 21.75 0.300781 20.41 0.300781 16V14C0.300781 9.59 1.86481 8.25 7.01209 8.25H18.6839C23.8312 8.25 25.3952 9.59 25.3952 14V16C25.3952 20.41 23.8312 21.75 18.6839 21.75ZM7.01209 9.75C2.83357 9.75 2.05156 10.43 2.05156 14V16C2.05156 19.57 2.83357 20.25 7.01209 20.25H18.6839C22.8624 20.25 23.6444 19.57 23.6444 16V14C23.6444 10.43 22.8624 9.75 18.6839 9.75H7.01209Z" fill="#5D6371"/>
<path d="M8.1789 16.0008C8.02717 16.0008 7.87543 15.9709 7.73537 15.9209C7.58364 15.8709 7.46693 15.8008 7.35021 15.7108C7.14012 15.5208 7.01172 15.2708 7.01172 15.0008C7.01172 14.8708 7.04672 14.7408 7.10508 14.6208C7.16344 14.4908 7.24517 14.3909 7.35021 14.2909C7.46693 14.2009 7.58364 14.1308 7.73537 14.0808C8.15556 13.9208 8.68078 14.0109 9.00759 14.2909C9.11264 14.3909 9.19436 14.5008 9.25272 14.6208C9.31108 14.7408 9.34609 14.8708 9.34609 15.0008C9.34609 15.2608 9.21768 15.5208 9.00759 15.7108C8.78583 15.8908 8.48237 16.0008 8.1789 16.0008Z" fill="#5D6371"/>
<path d="M12.8478 16.0009C12.5444 16.0009 12.2409 15.8909 12.0191 15.7109C11.8091 15.5209 11.6807 15.2709 11.6807 15.0009C11.6807 14.8709 11.704 14.7409 11.774 14.6209C11.8324 14.5009 11.9141 14.3909 12.0191 14.2909C12.2876 14.0609 12.6961 13.9509 13.0696 14.0209C13.1513 14.0309 13.2213 14.0509 13.2914 14.0809C13.3614 14.1009 13.4314 14.1309 13.5015 14.1709C13.5598 14.2009 13.6182 14.2509 13.6765 14.2909C13.7816 14.3909 13.8633 14.5009 13.9217 14.6209C13.98 14.7409 14.015 14.8709 14.015 15.0009C14.015 15.2709 13.8866 15.5209 13.6765 15.7109C13.6182 15.7509 13.5598 15.7909 13.5015 15.8309C13.4314 15.8709 13.3614 15.9009 13.2914 15.9209C13.2213 15.9509 13.1513 15.9709 13.0696 15.9809C12.9996 15.9909 12.9179 16.0009 12.8478 16.0009Z" fill="#5D6371"/>
<path d="M17.5168 16.0009C17.2017 16.0009 16.9099 15.8909 16.6881 15.7109C16.583 15.6109 16.5013 15.5009 16.443 15.3809C16.3846 15.2609 16.3496 15.1309 16.3496 15.0009C16.3496 14.7409 16.478 14.4809 16.6881 14.2909C16.7465 14.2509 16.8048 14.2109 16.8632 14.1709C16.9332 14.1309 17.0032 14.1009 17.0733 14.0809C17.1433 14.0509 17.2133 14.0309 17.2834 14.0209C17.6685 13.9509 18.0654 14.0609 18.3455 14.2909C18.5556 14.4809 18.684 14.7309 18.684 15.0009C18.684 15.1309 18.649 15.2609 18.5906 15.3809C18.5322 15.5109 18.4505 15.6109 18.3455 15.7109C18.1237 15.8909 17.8203 16.0009 17.5168 16.0009Z" fill="#5D6371"/>
</svg>
