<svg width="60" height="59" viewBox="0 0 60 59" fill="none" xmlns="http://www.w3.org/2000/svg">
<rect x="0.648438" y="0.5" width="58" height="58" rx="29" fill="white" fill-opacity="0.01" stroke="#B7BFD1"/>
<mask id="mask0_25766_20638" style="mask-type:luminance" maskUnits="userSpaceOnUse" x="14" y="14" width="31" height="31">
<path d="M44.3984 14.75H14.8984V44.25H44.3984V14.75Z" fill="white"/>
</mask>
<g mask="url(#mask0_25766_20638)">
<path d="M29.6451 42.5671C28.8216 42.5671 27.9857 42.3827 27.3343 42.0017L20.5739 38.1052C17.8205 36.2492 17.6484 35.9665 17.6484 33.0534V25.9488C17.6484 23.0356 17.8082 22.7529 20.5124 20.9215L27.322 16.9881C28.6126 16.2383 30.6407 16.2383 31.9314 16.9881L38.7164 20.8969C41.4697 22.7529 41.6418 23.0356 41.6418 25.9488V33.0411C41.6418 35.9542 41.482 36.2369 38.7778 38.0684L31.9682 42.0017C31.3045 42.3827 30.4687 42.5671 29.6451 42.5671ZM29.6451 18.2788C29.1289 18.2788 28.6249 18.3771 28.2684 18.586L21.508 22.4948C19.5045 23.8469 19.5045 23.8469 19.5045 25.9488V33.0411C19.5045 35.1429 19.5045 35.1429 21.5572 36.5319L28.2684 40.4038C28.9937 40.8217 30.3089 40.8217 31.0341 40.4038L37.7945 36.495C39.7857 35.1429 39.7857 35.1429 39.7857 33.0411V25.9488C39.7857 23.8469 39.7857 23.8469 37.733 22.4579L31.0218 18.586C30.6653 18.3771 30.1614 18.2788 29.6451 18.2788Z" fill="#5D6372"/>
<path d="M29.6484 34.1094C27.1041 34.1094 25.0391 32.0444 25.0391 29.5C25.0391 26.9556 27.1041 24.8906 29.6484 24.8906C32.1928 24.8906 34.2578 26.9556 34.2578 29.5C34.2578 32.0444 32.1928 34.1094 29.6484 34.1094ZM29.6484 26.7344C28.1243 26.7344 26.8828 27.9758 26.8828 29.5C26.8828 31.0242 28.1243 32.2656 29.6484 32.2656C31.1726 32.2656 32.4141 31.0242 32.4141 29.5C32.4141 27.9758 31.1726 26.7344 29.6484 26.7344Z" fill="#5D6372"/>
</g>
</svg>
