<svg width="22" height="20" viewBox="0 0 22 20" fill="none" xmlns="http://www.w3.org/2000/svg">
<path d="M3.23476 0.154297C1.73941 0.154297 0.761719 1.13622 0.761719 2.42682C0.761719 3.68892 1.71028 4.69885 3.17738 4.69885H3.20576C4.73036 4.69885 5.67917 3.68892 5.67917 2.42682C5.65067 1.13622 4.73036 0.154297 3.23476 0.154297Z" fill="black"/>
<path d="M1.01172 6.49609H5.38326V19.6481H1.01172V6.49609Z" fill="black"/>
<path d="M16.116 6.1875C13.7577 6.1875 12.1764 8.40352 12.1764 8.40352V6.49618H7.80469V19.6481H12.1761V12.3036C12.1761 11.9104 12.2046 11.5178 12.3201 11.2366C12.6361 10.4515 13.3553 9.63811 14.563 9.63811C16.1449 9.63811 16.7775 10.8442 16.7775 12.6123V19.6481H21.1487V12.107C21.1487 8.06733 18.9919 6.1875 16.116 6.1875Z" fill="black"/>
</svg>
