<svg width="27" height="26" viewBox="0 0 27 26" fill="none" xmlns="http://www.w3.org/2000/svg">
<path d="M13.75 25.5055C13.3802 25.5055 13.0105 25.4193 12.7023 25.2467C10.3974 23.9895 6.34233 22.6583 3.80326 22.3255L3.44581 22.2762C1.83116 22.079 0.5 20.563 0.5 18.9237V4.03439C0.5 3.06067 0.882093 2.17323 1.58465 1.5323C2.28721 0.891371 3.1993 0.583231 4.1607 0.66951C6.87233 0.879045 10.9644 2.23486 13.2816 3.68928L13.5774 3.86184C13.6637 3.91114 13.8486 3.91114 13.9226 3.87416L14.1198 3.75091C16.437 2.29649 20.5291 0.916022 23.253 0.681836C23.2777 0.681836 23.3763 0.681836 23.4009 0.681836C24.3007 0.595557 25.2251 0.916022 25.9153 1.55695C26.6179 2.19788 27 3.08532 27 4.05905V18.936C27 20.5876 25.6688 22.0913 24.0419 22.2886L23.6351 22.3379C21.096 22.6707 17.0286 24.0141 14.773 25.259C14.4772 25.4316 14.1198 25.5055 13.75 25.5055ZM3.86488 2.50602C3.47047 2.50602 3.11302 2.6416 2.82954 2.90044C2.5214 3.18393 2.34884 3.59067 2.34884 4.03439V18.9237C2.34884 19.6509 2.97744 20.3534 3.68 20.452L4.04977 20.5013C6.82302 20.8711 11.0753 22.2639 13.5405 23.6074C13.6514 23.6567 13.8116 23.669 13.8733 23.6444C16.3384 22.2762 20.6153 20.8711 23.4009 20.5013L23.82 20.452C24.5226 20.3658 25.1512 19.6509 25.1512 18.9237V4.04672C25.1512 3.59067 24.9786 3.19625 24.6705 2.90044C24.35 2.61695 23.9433 2.48137 23.4872 2.50602C23.4626 2.50602 23.364 2.50602 23.3393 2.50602C20.9851 2.71556 17.1888 3.98509 15.1181 5.27928L14.9209 5.41486C14.243 5.83393 13.2816 5.83393 12.6284 5.42718L12.3326 5.25463C10.2249 3.96044 6.4286 2.70323 4.01279 2.50602C3.96349 2.50602 3.91419 2.50602 3.86488 2.50602Z" fill="#5D6371"/>
<path d="M13.7486 24.471C13.2433 24.471 12.8242 24.0519 12.8242 23.5465V5.05821C12.8242 4.55286 13.2433 4.13379 13.7486 4.13379C14.254 4.13379 14.6731 4.55286 14.6731 5.05821V23.5465C14.6731 24.0642 14.254 24.471 13.7486 24.471Z" fill="#5D6371"/>
<path d="M8.51017 9.68087H5.73692C5.23157 9.68087 4.8125 9.2618 4.8125 8.75645C4.8125 8.2511 5.23157 7.83203 5.73692 7.83203H8.51017C9.01552 7.83203 9.43459 8.2511 9.43459 8.75645C9.43459 9.2618 9.01552 9.68087 8.51017 9.68087Z" fill="#5D6371"/>
<path d="M9.43459 13.3781H5.73692C5.23157 13.3781 4.8125 12.9591 4.8125 12.4537C4.8125 11.9484 5.23157 11.5293 5.73692 11.5293H9.43459C9.93994 11.5293 10.359 11.9484 10.359 12.4537C10.359 12.9591 9.93994 13.3781 9.43459 13.3781Z" fill="#5D6371"/>
</svg>
