<svg width="59" height="59" viewBox="0 0 59 59" fill="none" xmlns="http://www.w3.org/2000/svg">
<rect x="0.5" y="0.5" width="58" height="58" rx="29" fill="white" fill-opacity="0.01" stroke="#B7BFD1"/>
<path d="M29.5 39.75C23.85 39.75 19.25 35.15 19.25 29.5C19.25 23.85 23.85 19.25 29.5 19.25C35.15 19.25 39.75 23.85 39.75 29.5C39.75 35.15 35.15 39.75 29.5 39.75ZM29.5 20.75C24.67 20.75 20.75 24.68 20.75 29.5C20.75 34.32 24.67 38.25 29.5 38.25C34.33 38.25 38.25 34.32 38.25 29.5C38.25 24.68 34.33 20.75 29.5 20.75Z" fill="#5D6371"/>
<path d="M40.0014 40.7495C39.8114 40.7495 39.6214 40.6795 39.4714 40.5295L37.4714 38.5295C37.1814 38.2395 37.1814 37.7595 37.4714 37.4695C37.7614 37.1795 38.2414 37.1795 38.5314 37.4695L40.5314 39.4695C40.8214 39.7595 40.8214 40.2395 40.5314 40.5295C40.3814 40.6795 40.1914 40.7495 40.0014 40.7495Z" fill="#5D6371"/>
</svg>
