<svg width="18" height="22" viewBox="0 0 18 22" fill="none" xmlns="http://www.w3.org/2000/svg">
<path d="M15.0362 11.6956C15.012 8.92013 17.3256 7.56607 17.4314 7.5051C16.1219 5.60877 14.1047 5.34566 13.3729 5.32962C11.6672 5.14993 10.0129 6.34356 9.13887 6.34356C8.26485 6.34356 6.91602 5.34566 5.47041 5.38096C4.5573 5.39927 3.66321 5.66103 2.87046 6.14214C2.07771 6.62324 1.41178 7.30822 0.933998 8.134C-1.03178 11.516 0.431968 16.4766 2.31912 19.2168C3.25967 20.558 4.36051 22.0501 5.80006 21.9987C7.23962 21.9474 7.73863 21.1067 9.4292 21.1067C11.1198 21.1067 11.6097 21.9987 13.0825 21.9666C14.5554 21.9345 15.5473 20.6222 16.4576 19.2745C17.1287 18.33 17.6497 17.2754 18 16.1525C17.9667 16.1204 15.0634 15.0198 15.0362 11.6956ZM12.2599 3.52955C12.6651 3.0539 12.9747 2.49559 13.1697 1.88873C13.3647 1.28187 13.441 0.639211 13.394 0C12.1509 0.121918 10.9921 0.719541 10.1339 1.68135C9.43827 2.49314 8.80922 3.82475 8.97253 5.07613C10.2004 5.16598 11.4736 4.45365 12.2599 3.52955Z" fill="black"/>
</svg>
