<svg width="22" height="22" viewBox="0 0 22 22" fill="none" xmlns="http://www.w3.org/2000/svg">
<path d="M11.6103 21.5989C11.5409 21.5989 11.4715 21.5989 11.4015 21.5985C9.75767 21.6025 8.23876 21.5608 6.76161 21.4708C5.40734 21.3884 4.17116 20.9204 3.1865 20.1175C2.2364 19.3428 1.58758 18.2953 1.25814 17.0044C0.97141 15.8805 0.95621 14.7773 0.941649 13.7102C0.931089 12.9446 0.920209 12.0374 0.917969 11.1148C0.920209 10.1884 0.931089 9.28115 0.941649 8.51554C0.95621 7.44864 0.97141 6.34541 1.25814 5.22139C1.58758 3.93048 2.2364 2.88294 3.1865 2.10821C4.17116 1.30531 5.40734 0.837299 6.76177 0.754897C8.23892 0.665135 9.75815 0.623214 11.4055 0.627214C13.0499 0.623694 14.5683 0.665135 16.0455 0.754897C17.3997 0.837299 18.6359 1.30531 19.6206 2.10821C20.5709 2.88294 21.2195 3.93048 21.549 5.22139C21.8357 6.34525 21.8509 7.44864 21.8654 8.51554C21.876 9.28115 21.887 10.1884 21.8891 11.111V11.1148C21.887 12.0374 21.876 12.9446 21.8654 13.7102C21.8509 14.7771 21.8358 15.8803 21.549 17.0044C21.2195 18.2953 20.5709 19.3428 19.6206 20.1175C18.6359 20.9204 17.3997 21.3884 16.0455 21.4708C14.6309 21.5569 13.1777 21.5989 11.6103 21.5989ZM11.4015 19.9601C13.0187 19.9639 14.5035 19.9231 15.946 19.8355C16.97 19.7732 17.8578 19.4409 18.5852 18.8478C19.2575 18.2994 19.7206 17.5429 19.9614 16.5992C20.2001 15.6637 20.2139 14.6592 20.2272 13.6878C20.2376 12.9273 20.2484 12.0265 20.2507 11.1129C20.2484 10.1991 20.2376 9.29844 20.2272 8.53794C20.2139 7.56656 20.2001 6.56206 19.9614 5.62636C19.7206 4.68266 19.2575 3.92616 18.5852 3.37783C17.8578 2.78486 16.97 2.45253 15.946 2.39029C14.5035 2.30245 13.0187 2.26197 11.4054 2.26549C9.78855 2.26165 8.30356 2.30245 6.86113 2.39029C5.83711 2.45253 4.94925 2.78486 4.22188 3.37783C3.54954 3.92616 3.08649 4.68266 2.84569 5.62636C2.60696 6.56206 2.5932 7.5664 2.57992 8.53794C2.56952 9.29908 2.55864 10.2004 2.5564 11.1148C2.55864 12.0252 2.56952 12.9267 2.57992 13.6878C2.5932 14.6592 2.60696 15.6637 2.84569 16.5992C3.08649 17.5429 3.54954 18.2994 4.22188 18.8478C4.94925 19.4407 5.83711 19.7731 6.86113 19.8353C8.30356 19.9231 9.78887 19.9641 11.4015 19.9601ZM11.3625 16.233C8.53941 16.233 6.2424 13.9361 6.2424 11.1129C6.2424 8.28961 8.53941 5.99277 11.3625 5.99277C14.1858 5.99277 16.4826 8.28961 16.4826 11.1129C16.4826 13.9361 14.1858 16.233 11.3625 16.233ZM11.3625 7.6312C9.44278 7.6312 7.88083 9.19315 7.88083 11.1129C7.88083 13.0326 9.44278 14.5945 11.3625 14.5945C13.2824 14.5945 14.8442 13.0326 14.8442 11.1129C14.8442 9.19315 13.2824 7.6312 11.3625 7.6312ZM17.0561 4.35433C16.3775 4.35433 15.8272 4.90442 15.8272 5.58316C15.8272 6.26189 16.3775 6.81198 17.0561 6.81198C17.7348 6.81198 18.2849 6.26189 18.2849 5.58316C18.2849 4.90442 17.7348 4.35433 17.0561 4.35433Z" fill="black"/>
</svg>
