<svg width="37" height="37" viewBox="0 0 37 37" fill="none" xmlns="http://www.w3.org/2000/svg">
<path d="M35.2125 16.2793L32.7072 13.4161C32.1703 12.8793 31.8124 11.8055 31.8124 11.0897V8.22652C31.8124 6.25806 30.2019 4.82645 28.4124 4.82645H25.3702C24.6544 4.82645 23.5807 4.46855 23.0438 3.93169L20.1806 1.42637C18.9279 0.352667 16.9595 0.352667 15.7068 1.42637L13.0226 3.93169C12.4857 4.46855 11.412 4.82645 10.6962 4.82645H7.65402C5.68555 4.82645 4.25394 6.43701 4.25394 8.22652V11.2687C4.25394 11.9845 3.89604 13.0582 3.35919 13.5951L1.03282 16.4583C-0.0408879 17.7109 -0.0408879 19.6794 1.03282 20.9321L3.35919 23.7953C3.89604 24.3321 4.25394 25.4058 4.25394 26.1217V29.1638C4.25394 31.1323 5.8645 32.5639 7.65402 32.5639H10.6962C11.412 32.5639 12.4857 32.9218 13.0226 33.4587L15.8858 35.964C17.1384 37.0377 19.1069 37.0377 20.3596 35.964L23.2228 33.4587C23.7596 32.9218 24.8333 32.5639 25.5491 32.5639H28.5913C30.5598 32.5639 31.9914 30.9533 31.9914 29.1638V26.1217C31.9914 25.4058 32.3493 24.3321 32.8861 23.7953L35.3915 20.9321C36.2862 19.6794 36.2862 17.532 35.2125 16.2793ZM25.5491 15.2056L16.9595 23.7953C16.7805 23.9742 16.4226 24.1532 16.0647 24.1532C15.7068 24.1532 15.3489 23.9742 15.17 23.7953L10.8751 19.5005C10.3383 18.9636 10.3383 18.0688 10.8751 17.532C11.412 16.9951 12.3068 16.9951 12.8436 17.532L16.2437 20.9321L23.5807 13.2372C24.1175 12.7003 25.0123 12.7003 25.5491 13.2372C26.086 13.774 26.086 14.6688 25.5491 15.2056Z" fill="white"/>
</svg>
