<svg width="19" height="19" viewBox="0 0 19 19" fill="none" xmlns="http://www.w3.org/2000/svg">
<path d="M13.0822 0.740234H5.79242C2.62597 0.740234 0.738281 2.62792 0.738281 5.79437V13.0755C0.738281 16.2506 2.62597 18.1383 5.79242 18.1383H13.0735C16.24 18.1383 18.1276 16.2506 18.1276 13.0842V5.79437C18.1363 2.62792 16.2487 0.740234 13.0822 0.740234ZM13.2388 11.7271L11.3076 13.6583C10.8379 14.128 10.2289 14.3542 9.61999 14.3542C9.01106 14.3542 8.39343 14.1193 7.93238 13.6583C7.00158 12.7275 7.00158 11.2052 7.93238 10.2744L9.15894 9.04781C9.41121 8.79554 9.82877 8.79554 10.081 9.04781C10.3333 9.30008 10.3333 9.71763 10.081 9.9699L8.85448 11.1965C8.42822 11.6227 8.42822 12.3099 8.85448 12.7362C9.28073 13.1624 9.96795 13.1624 10.3942 12.7362L12.3254 10.805C12.856 10.2744 13.1518 9.56105 13.1518 8.80423C13.1518 8.04742 12.856 7.3428 12.3254 6.80346C11.2554 5.73348 9.39382 5.73348 8.32383 6.80346L6.20997 8.91732C5.30527 9.82202 5.30527 11.3009 6.20997 12.2143C6.46224 12.4665 6.46224 12.8841 6.20997 13.1364C5.9577 13.3886 5.54015 13.3886 5.28787 13.1364C3.86993 11.7184 3.86993 9.41317 5.28787 7.99522L7.39304 5.89006C8.17595 5.10715 9.21114 4.68089 10.3159 4.68089C11.4207 4.68089 12.4559 5.10715 13.2388 5.89006C14.0217 6.67297 14.448 7.70816 14.448 8.81293C14.448 9.91771 14.0217 10.9529 13.2388 11.7271Z" fill="#2E2E2E"/>
</svg>
