<svg width="28" height="28" viewBox="0 0 28 28" fill="none" xmlns="http://www.w3.org/2000/svg">
<path d="M21.9732 12.8765C21.4357 12.8765 20.9749 12.5044 20.8598 11.9785L20.4502 10.2082C20.2454 9.29731 19.5287 8.5789 18.6201 8.36082L16.8411 7.95029C16.3292 7.83484 15.958 7.38583 15.958 6.83419C15.958 6.28256 16.3292 5.83355 16.8539 5.71809L18.6201 5.30757C19.5287 5.10231 20.2454 4.38391 20.463 3.47306L20.8725 1.68987C20.9877 1.17672 21.4485 0.804688 21.986 0.804688C22.5235 0.804688 22.9843 1.17672 23.0995 1.7027L23.509 3.47306C23.7138 4.38391 24.4433 5.10231 25.3392 5.3204L27.1181 5.73092C27.63 5.84638 28.0012 6.29539 28.0012 6.84702C28.0012 7.39866 27.63 7.84766 27.1181 7.96312L25.3519 8.37364C24.4433 8.5789 23.7266 9.29731 23.509 10.2082L23.0995 11.9913C22.9843 12.5044 22.5107 12.8765 21.9732 12.8765ZM20.0151 6.84702C20.8598 7.27037 21.5637 7.97595 21.986 8.82265C22.4083 7.97595 23.0995 7.27037 23.9569 6.84702C23.1122 6.42368 22.4083 5.73092 21.986 4.8714C21.5637 5.71809 20.8598 6.41085 20.0151 6.84702Z" fill="#5D6371"/>
<path d="M21.4371 27.3477H6.07919C2.72603 27.3477 0 24.6151 0 21.254V12.0815C0 10.1956 0.857485 8.43809 2.34209 7.27069L10.0211 1.27967C12.2223 -0.426556 15.2811 -0.426556 17.4824 1.27967C17.9048 1.60039 17.9816 2.21616 17.6488 2.62668C17.3289 3.05002 16.7273 3.12699 16.305 2.79344C14.7948 1.62603 12.6959 1.62603 11.1985 2.79344L3.51953 8.78447C2.50846 9.57985 1.91974 10.7858 1.91974 12.0815V21.254C1.91974 23.5504 3.78829 25.4234 6.07919 25.4234H21.4371C23.728 25.4234 25.5966 23.5504 25.5966 21.254V12.0815C25.5966 11.5555 26.0317 11.1193 26.5564 11.1193C27.0812 11.1193 27.5163 11.5555 27.5163 12.0815V21.254C27.5163 24.6151 24.7903 27.3477 21.4371 27.3477Z" fill="#5D6371"/>
<path d="M13.7421 22.2168C13.2174 22.2168 12.7822 21.7806 12.7822 21.2546V17.406C12.7822 16.88 13.2174 16.4438 13.7421 16.4438C14.2668 16.4438 14.702 16.88 14.702 17.406V21.2546C14.702 21.7806 14.2668 22.2168 13.7421 22.2168Z" fill="#5D6371"/>
</svg>
