<svg width="33" height="34" viewBox="0 0 33 34" fill="none" xmlns="http://www.w3.org/2000/svg">
<g clip-path="url(#clip0_25893_16195)">
<path fill-rule="evenodd" clip-rule="evenodd" d="M27.8844 18.4824H23.0527C20.384 18.4824 18.2211 20.5424 18.2211 23.084V27.6856C18.2211 30.2272 20.384 32.2872 23.0527 32.2872H27.8844C30.5531 32.2872 32.7161 30.2272 32.7161 27.6856V23.084C32.7161 20.5424 30.5531 18.4824 27.8844 18.4824ZM10.1683 18.4824H5.33657C2.66787 18.4824 0.504883 20.5424 0.504883 23.084V27.6856C0.504883 30.2272 2.66787 32.2872 5.33657 32.2872H10.1683C12.837 32.2872 14.9999 30.2272 14.9999 27.6856V23.084C14.9999 20.5424 12.837 18.4824 10.1683 18.4824ZM27.8844 1.60986H23.0527C20.384 1.60986 18.2211 3.66985 18.2211 6.21147V10.8131C18.2211 13.3547 20.384 15.4147 23.0527 15.4147H27.8844C30.5531 15.4147 32.7161 13.3547 32.7161 10.8131V6.21147C32.7161 3.66985 30.5531 1.60986 27.8844 1.60986ZM14.9999 6.21147V10.8131C14.9999 13.3547 12.837 15.4147 10.1683 15.4147H5.33657C2.66787 15.4147 0.504883 13.3547 0.504883 10.8131V6.21147C0.504883 3.66985 2.66787 1.60986 5.33657 1.60986H10.1683C12.837 1.60986 14.9999 3.66985 14.9999 6.21147Z" fill="#90959C"/>
</g>
<defs>
<clipPath id="clip0_25893_16195">
<rect width="32.2112" height="32.2112" fill="white" transform="translate(0.504883 0.842773)"/>
</clipPath>
</defs>
</svg>
