<svg width="50" height="50" viewBox="0 0 50 50" fill="none" xmlns="http://www.w3.org/2000/svg">
<rect x="0.5" y="0.5" width="49" height="49" rx="24.5" stroke="#5D6371"/>
<g clip-path="url(#clip0_24932_2804)">
<mask id="mask0_24932_2804" style="mask-type:luminance" maskUnits="userSpaceOnUse" x="12" y="13" width="24" height="24">
<path d="M36 13H12V37H36V13Z" fill="white"/>
</mask>
<g mask="url(#mask0_24932_2804)">
<path d="M31.9996 19.4908V28.5748C31.9996 29.7343 31.1679 30.2221 30.1524 29.6624L28.6091 28.7987C28.4811 28.7268 28.4012 28.5908 28.4012 28.4469V22.5935C28.4012 20.5623 26.7459 18.9071 24.7148 18.9071H21.4602C21.1643 18.9071 20.9564 18.5952 21.0923 18.3393C21.5082 17.5477 22.3398 17.0039 23.2914 17.0039H29.5127C30.8801 17.0039 31.9996 18.1234 31.9996 19.4908Z" fill="#5D6371"/>
<path d="M24.7121 20.1074H18.4908C17.1234 20.1074 16.0039 21.2269 16.0039 22.5943V31.6784C16.0039 32.8379 16.8355 33.3257 17.8511 32.7659L20.9937 31.0147C21.3296 30.8308 21.8733 30.8308 22.2092 31.0147L25.3518 32.7659C26.3674 33.3257 27.199 32.8379 27.199 31.6784V22.5943C27.199 21.2269 26.0795 20.1074 24.7121 20.1074ZM23.2008 25.601H22.2012V26.6006C22.2012 26.9285 21.9293 27.2003 21.6015 27.2003C21.2736 27.2003 21.0017 26.9285 21.0017 26.6006V25.601H20.0022C19.6743 25.601 19.4024 25.3292 19.4024 25.0013C19.4024 24.6735 19.6743 24.4016 20.0022 24.4016H21.0017V23.402C21.0017 23.0741 21.2736 22.8022 21.6015 22.8022C21.9293 22.8022 22.2012 23.0741 22.2012 23.402V24.4016H23.2008C23.5286 24.4016 23.8005 24.6735 23.8005 25.0013C23.8005 25.3292 23.5286 25.601 23.2008 25.601Z" fill="#5D6371"/>
</g>
</g>
<defs>
<clipPath id="clip0_24932_2804">
<rect width="24" height="24" fill="white" transform="translate(12 13)"/>
</clipPath>
</defs>
</svg>
