<svg width="24" height="17" viewBox="0 0 24 17" fill="none" xmlns="http://www.w3.org/2000/svg">
<path d="M11.9013 16.1726C11.8994 16.1726 11.8974 16.1726 11.8953 16.1726C11.2223 16.168 5.27259 16.1138 3.58691 15.6579C2.40884 15.3412 1.47887 14.4122 1.16134 13.234C0.720263 11.5781 0.748341 8.39001 0.751404 8.13544C0.748511 7.88206 0.720093 4.66759 1.15998 2.99808C1.16049 2.99655 1.16083 2.99485 1.16134 2.99331C1.4753 1.82852 2.42619 0.870812 3.58402 0.553279C3.58691 0.552428 3.58997 0.551747 3.59286 0.550897C5.25949 0.112885 11.221 0.059282 11.8953 0.0546875H11.9074C12.5821 0.059282 18.5477 0.113566 20.2179 0.570126C21.3929 0.885957 22.3222 1.81371 22.6406 2.99042C23.0982 4.66113 23.0558 7.88257 23.0512 8.1545C23.0544 8.42235 23.0812 11.5818 22.6426 13.2461C22.6423 13.2478 22.6418 13.2493 22.6414 13.2509C22.3237 14.4291 21.3939 15.358 20.2145 15.6751C20.213 15.6756 20.2113 15.6759 20.2097 15.6764C18.5433 16.1143 12.5816 16.1679 11.9074 16.1726C11.9054 16.1726 11.9033 16.1726 11.9013 16.1726ZM2.8443 3.44494C2.45699 4.91859 2.49358 8.09205 2.49392 8.12404V8.14701C2.48235 9.02712 2.52302 11.5759 2.84447 12.7831C3.00034 13.3611 3.45894 13.819 4.04058 13.9754C5.28433 14.3118 10.1302 14.4177 11.9013 14.4301C13.677 14.4177 18.53 14.3147 19.7646 13.9918C20.3443 13.8349 20.8014 13.3785 20.9583 12.7997C21.2801 11.5749 21.3204 9.03852 21.3087 8.16403C21.3087 8.15484 21.3087 8.14565 21.3089 8.13646C21.3249 7.24581 21.2934 4.66725 20.9598 3.45038C20.9595 3.44919 20.9592 3.448 20.959 3.44681C20.8024 2.8662 20.3437 2.40828 19.762 2.25189C18.5304 1.91513 13.6767 1.80963 11.9013 1.7972C10.1268 1.80963 5.27855 1.91241 4.04024 2.23505C3.46966 2.3933 3.00068 2.86756 2.8443 3.44494ZM9.68044 11.6421V4.58506L15.7793 8.11366L9.68044 11.6421Z" fill="black"/>
</svg>
