<svg width="32" height="33" viewBox="0 0 32 33" fill="none" xmlns="http://www.w3.org/2000/svg">
<path d="M11.5785 6.28321C13.5619 2.72527 14.5535 0.946289 16.0362 0.946289C17.5188 0.946289 18.5105 2.72525 20.4938 6.2832L21.0069 7.20368C21.5706 8.21473 21.8523 8.72028 22.2918 9.05383C22.7312 9.38738 23.2783 9.51119 24.3728 9.75882L25.3693 9.98427C29.2206 10.8557 31.1464 11.2914 31.6045 12.7647C32.0627 14.2379 30.7499 15.7732 28.1242 18.8435L27.4449 19.6378C26.6988 20.5103 26.3257 20.9466 26.1578 21.4863C25.9901 22.026 26.0465 22.6081 26.1592 23.7722L26.2619 24.832C26.6589 28.9285 26.8574 30.9768 25.658 31.8873C24.4584 32.7978 22.6554 31.9676 19.0493 30.3074L18.1164 29.8777C17.0917 29.4059 16.5794 29.17 16.0362 29.17C15.493 29.17 14.9806 29.4059 13.956 29.8777L13.0231 30.3074C9.41693 31.9676 7.61389 32.7978 6.41442 31.8873C5.21495 30.9768 5.41343 28.9285 5.8104 24.832L5.91309 23.7722C6.02591 22.6081 6.08231 22.026 5.91447 21.4863C5.74664 20.9466 5.37358 20.5103 4.62745 19.6378L3.94817 18.8435C1.32252 15.7732 0.0096823 14.2379 0.467842 12.7647C0.926002 11.2914 2.85171 10.8557 6.70314 9.98427L7.69955 9.75882C8.794 9.51119 9.34122 9.38738 9.78061 9.05383C10.22 8.72028 10.5018 8.21475 11.0654 7.20368L11.5785 6.28321Z" fill="#5D6371" fill-opacity="0.65"/>
</svg>
