<svg width="28" height="25" viewBox="0 0 28 25" fill="none" xmlns="http://www.w3.org/2000/svg">
<path d="M26.947 6.39645H19.4155C18.8891 6.39645 18.4707 5.97804 18.4707 5.45165C18.4707 4.92525 18.8891 4.50684 19.4155 4.50684H26.947C27.4734 4.50684 27.8918 4.92525 27.8918 5.45165C27.8918 5.97804 27.4734 6.39645 26.947 6.39645Z" fill="white"/>
<path d="M26.947 6.39645H19.4155C18.8891 6.39645 18.4707 5.97804 18.4707 5.45165C18.4707 4.92525 18.8891 4.50684 19.4155 4.50684H26.947C27.4734 4.50684 27.8918 4.92525 27.8918 5.45165C27.8918 5.97804 27.4734 6.39645 26.947 6.39645Z" fill="#5D6371"/>
<path d="M6.86423 6.39645H1.84325C1.31685 6.39645 0.898438 5.97804 0.898438 5.45165C0.898438 4.92525 1.31685 4.50684 1.84325 4.50684H6.86423C7.39063 4.50684 7.80904 4.92525 7.80904 5.45165C7.80904 5.97804 7.37713 6.39645 6.86423 6.39645Z" fill="white"/>
<path d="M6.86423 6.39645H1.84325C1.31685 6.39645 0.898438 5.97804 0.898438 5.45165C0.898438 4.92525 1.31685 4.50684 1.84325 4.50684H6.86423C7.39063 4.50684 7.80904 4.92525 7.80904 5.45165C7.80904 5.97804 7.37713 6.39645 6.86423 6.39645Z" fill="#5D6371"/>
<path d="M11.8812 10.7835C14.8257 10.7835 17.2126 8.39649 17.2126 5.45203C17.2126 2.50756 14.8257 0.120605 11.8812 0.120605C8.93677 0.120605 6.5498 2.50756 6.5498 5.45203C6.5498 8.39649 8.93677 10.7835 11.8812 10.7835Z" fill="white"/>
<path d="M11.8812 10.7835C14.8257 10.7835 17.2126 8.39649 17.2126 5.45203C17.2126 2.50756 14.8257 0.120605 11.8812 0.120605C8.93677 0.120605 6.5498 2.50756 6.5498 5.45203C6.5498 8.39649 8.93677 10.7835 11.8812 10.7835Z" fill="#5D6371"/>
<path d="M26.9502 20.205H21.9292C21.4028 20.205 20.9844 19.7866 20.9844 19.2602C20.9844 18.7338 21.4028 18.3154 21.9292 18.3154H26.9502C27.4766 18.3154 27.895 18.7338 27.895 19.2602C27.895 19.7866 27.4766 20.205 26.9502 20.205Z" fill="white"/>
<path d="M26.9502 20.205H21.9292C21.4028 20.205 20.9844 19.7866 20.9844 19.2602C20.9844 18.7338 21.4028 18.3154 21.9292 18.3154H26.9502C27.4766 18.3154 27.895 18.7338 27.895 19.2602C27.895 19.7866 27.4766 20.205 26.9502 20.205Z" fill="#5D6371"/>
<path d="M9.37473 20.205H1.84325C1.31685 20.205 0.898438 19.7866 0.898438 19.2602C0.898438 18.7338 1.31685 18.3154 1.84325 18.3154H9.37473C9.90112 18.3154 10.3195 18.7338 10.3195 19.2602C10.3195 19.7866 9.88762 20.205 9.37473 20.205Z" fill="white"/>
<path d="M9.37473 20.205H1.84325C1.31685 20.205 0.898438 19.7866 0.898438 19.2602C0.898438 18.7338 1.31685 18.3154 1.84325 18.3154H9.37473C9.90112 18.3154 10.3195 18.7338 10.3195 19.2602C10.3195 19.7866 9.88762 20.205 9.37473 20.205Z" fill="#5D6371"/>
<path d="M16.9095 24.6033C19.854 24.6033 22.241 22.2163 22.241 19.2719C22.241 16.3274 19.854 13.9404 16.9095 13.9404C13.9651 13.9404 11.5781 16.3274 11.5781 19.2719C11.5781 22.2163 13.9651 24.6033 16.9095 24.6033Z" fill="white"/>
<path d="M16.9095 24.6033C19.854 24.6033 22.241 22.2163 22.241 19.2719C22.241 16.3274 19.854 13.9404 16.9095 13.9404C13.9651 13.9404 11.5781 16.3274 11.5781 19.2719C11.5781 22.2163 13.9651 24.6033 16.9095 24.6033Z" fill="#5D6371"/>
</svg>
