<svg width="41" height="99" viewBox="0 0 41 99" fill="none" xmlns="http://www.w3.org/2000/svg">
<g filter="url(#filter0_d_25766_20778)">
<path d="M22.5791 9.72705L22.5791 86.2706" stroke="#2050E4" stroke-width="2"/>
<path d="M25.8362 26.1838C24.2409 28.4172 20.9216 28.4172 19.3264 26.1838L12.0906 16.0537C10.1995 13.4062 12.092 9.72876 15.3455 9.72876L29.8171 9.72876C33.0706 9.72876 34.9631 13.4062 33.072 16.0537L25.8362 26.1838Z" fill="#2050E4"/>
<path d="M19.3033 78.9465C20.8957 76.6716 24.2647 76.6716 25.8571 78.9465L28.6805 82.9798C30.5363 85.6309 28.6397 89.2737 25.4036 89.2737H19.7568C16.5207 89.2737 14.6241 85.6309 16.4799 82.9798L19.3033 78.9465Z" fill="#2050E4"/>
</g>
<defs>
<filter id="filter0_d_25766_20778" x="0.438868" y="0.827051" width="40.2854" height="97.3469" filterUnits="userSpaceOnUse" color-interpolation-filters="sRGB">
<feFlood flood-opacity="0" result="BackgroundImageFix"/>
<feColorMatrix in="SourceAlpha" type="matrix" values="0 0 0 0 0 0 0 0 0 0 0 0 0 0 0 0 0 0 127 0" result="hardAlpha"/>
<feOffset dx="-2"/>
<feGaussianBlur stdDeviation="4.45"/>
<feComposite in2="hardAlpha" operator="out"/>
<feColorMatrix type="matrix" values="0 0 0 0 0 0 0 0 0 0 0 0 0 0 0 0 0 0 0.25 0"/>
<feBlend mode="normal" in2="BackgroundImageFix" result="effect1_dropShadow_25766_20778"/>
<feBlend mode="normal" in="SourceGraphic" in2="effect1_dropShadow_25766_20778" result="shape"/>
</filter>
</defs>
</svg>
