<svg width="33" height="33" viewBox="0 0 33 33" fill="none" xmlns="http://www.w3.org/2000/svg">
<path d="M30.3546 0.43326C25.9911 0.00883126 21.5978 0.851515 17.7011 2.86034V28.2273C17.7011 28.4794 17.6009 28.7212 17.4226 28.8995C17.2444 29.0778 17.0025 29.178 16.7504 29.178C16.4983 29.178 16.2565 29.0778 16.0782 28.8995C15.8999 28.7212 15.7997 28.4794 15.7997 28.2273V2.78429C11.9336 0.620879 7.46842 -0.225701 3.0787 0.372417C2.39198 0.463797 1.76155 0.800634 1.30388 1.32069C0.846208 1.84075 0.592228 2.50888 0.588867 3.20164V27.3489C0.591366 28.0782 0.872349 28.779 1.37437 29.3081C1.8764 29.8372 2.56155 30.1545 3.28975 30.1952C7.5803 30.4424 11.8155 31.2864 15.8729 32.7031C16.1726 32.8084 16.4879 32.8624 16.8055 32.8628C17.1295 32.8618 17.451 32.8058 17.7562 32.6974C21.7648 31.2724 25.9567 30.4282 30.2044 30.1905C30.9349 30.1518 31.6228 29.8345 32.1265 29.304C32.6302 28.7734 32.9113 28.07 32.9119 27.3384V3.27009C32.9175 2.56312 32.6581 1.8797 32.1847 1.35458C31.7113 0.829461 31.0584 0.500752 30.3546 0.43326ZM11.997 25.3753C11.9441 25.3755 11.8913 25.371 11.8392 25.362L6.13513 24.4113C5.89141 24.3644 5.67568 24.2242 5.534 24.0204C5.39233 23.8166 5.33595 23.5655 5.37691 23.3208C5.41787 23.076 5.55292 22.857 5.75322 22.7104C5.95351 22.5639 6.20317 22.5015 6.44885 22.5365L12.1529 23.4872C12.3877 23.5269 12.5991 23.6533 12.7452 23.8414C12.8913 24.0294 12.9615 24.2655 12.9419 24.5028C12.9223 24.7402 12.8143 24.9615 12.6393 25.1231C12.4644 25.2846 12.2352 25.3746 11.997 25.3753ZM11.997 19.6712C11.9441 19.6714 11.8913 19.667 11.8392 19.6579L6.13513 18.7072C5.89141 18.6604 5.67568 18.5201 5.534 18.3163C5.39233 18.1126 5.33595 17.8615 5.37691 17.6167C5.41787 17.3719 5.55292 17.1529 5.75322 17.0063C5.95351 16.8598 6.20317 16.7974 6.44885 16.8325L12.1529 17.7831C12.3877 17.8228 12.5991 17.9492 12.7452 18.1373C12.8913 18.3254 12.9615 18.5614 12.9419 18.7988C12.9223 19.0361 12.8143 19.2574 12.6393 19.419C12.4644 19.5805 12.2352 19.6705 11.997 19.6712ZM11.997 13.9671C11.9441 13.9673 11.8913 13.9629 11.8392 13.9538L6.13513 13.0031C5.89141 12.9563 5.67568 12.816 5.534 12.6122C5.39233 12.4085 5.33595 12.1574 5.37691 11.9126C5.41787 11.6679 5.55292 11.4488 5.75322 11.3023C5.95351 11.1557 6.20317 11.0933 6.44885 11.1284L12.1529 12.0791C12.3877 12.1188 12.5991 12.2452 12.7452 12.4332C12.8913 12.6213 12.9615 12.8573 12.9419 13.0947C12.9223 13.332 12.8143 13.5534 12.6393 13.7149C12.4644 13.8765 12.2352 13.9665 11.997 13.9671ZM11.997 8.26305C11.9441 8.26326 11.8913 8.25881 11.8392 8.24974L6.13513 7.29906C5.89141 7.25222 5.67568 7.11194 5.534 6.90818C5.39233 6.70442 5.33595 6.45333 5.37691 6.20856C5.41787 5.96379 5.55292 5.74474 5.75322 5.5982C5.95351 5.45167 6.20317 5.38926 6.44885 5.42432L12.1529 6.375C12.3877 6.41471 12.5991 6.54109 12.7452 6.72916C12.8913 6.91723 12.9615 7.15328 12.9419 7.39061C12.9223 7.62795 12.8143 7.84929 12.6393 8.01084C12.4644 8.1724 12.2352 8.2624 11.997 8.26305ZM27.3647 24.4113L21.6607 25.362C21.6089 25.371 21.5564 25.3754 21.5038 25.3753C21.2657 25.3746 21.0364 25.2846 20.8615 25.1231C20.6865 24.9615 20.5785 24.7402 20.5589 24.5028C20.5393 24.2655 20.6095 24.0294 20.7556 23.8414C20.9017 23.6533 21.1131 23.5269 21.3479 23.4872L27.052 22.5365C27.2976 22.5015 27.5473 22.5639 27.7476 22.7104C27.9479 22.857 28.0829 23.076 28.1239 23.3208C28.1649 23.5655 28.1085 23.8166 27.9668 24.0204C27.8251 24.2242 27.6084 24.3644 27.3647 24.4113ZM27.3647 18.7072L21.6607 19.6579C21.6089 19.6669 21.5564 19.6714 21.5038 19.6712C21.2657 19.6705 21.0364 19.5805 20.8615 19.419C20.6865 19.2574 20.5785 19.0361 20.5589 18.7988C20.5393 18.5614 20.6095 18.3254 20.7556 18.1373C20.9017 17.9492 21.1131 17.8228 21.3479 17.7831L27.052 16.8325C27.2976 16.7974 27.5473 16.8598 27.7476 17.0063C27.9479 17.1529 28.0829 17.3719 28.1239 17.6167C28.1649 17.8615 28.1085 18.1126 27.9668 18.3163C27.8251 18.5201 27.6084 18.6604 27.3647 18.7072ZM27.3647 13.0031L21.6607 13.9538C21.6089 13.9628 21.5564 13.9673 21.5038 13.9671C21.2657 13.9665 21.0364 13.8765 20.8615 13.7149C20.6865 13.5534 20.5785 13.332 20.5589 13.0947C20.5393 12.8573 20.6095 12.6213 20.7556 12.4332C20.9017 12.2452 21.1131 12.1188 21.3479 12.0791L27.052 11.1284C27.2976 11.0933 27.5473 11.1557 27.7476 11.3023C27.9479 11.4488 28.0829 11.6679 28.1239 11.9126C28.1649 12.1574 28.1085 12.4085 27.9668 12.6122C27.8251 12.816 27.6084 12.9563 27.3647 13.0031ZM27.3647 7.29906L21.6607 8.24974C21.6089 8.25875 21.5564 8.26321 21.5038 8.26305C21.2657 8.2624 21.0364 8.1724 20.8615 8.01084C20.6865 7.84929 20.5785 7.62795 20.5589 7.39061C20.5393 7.15328 20.6095 6.91723 20.7556 6.72916C20.9017 6.54109 21.1131 6.41471 21.3479 6.375L27.052 5.42432C27.2976 5.38926 27.5473 5.45167 27.7476 5.5982C27.9479 5.74474 28.0829 5.96379 28.1239 6.20856C28.1649 6.45333 28.1085 6.70442 27.9668 6.90818C27.8251 7.11194 27.6084 7.25222 27.3647 7.29906Z" fill="#5D6371" fill-opacity="0.65"/>
</svg>
