<svg width="14" height="14" viewBox="0 0 14 14" fill="none" xmlns="http://www.w3.org/2000/svg">
<path d="M0.942664 13.2421C0.703057 13.2421 0.46345 13.1538 0.274287 12.9646C-0.091429 12.5989 -0.091429 11.9936 0.274287 11.6279L10.6152 1.28698C10.9809 0.921266 11.5863 0.921266 11.952 1.28698C12.3177 1.6527 12.3177 2.25802 11.952 2.62374L1.61104 12.9646C1.42188 13.1538 1.18227 13.2421 0.942664 13.2421Z" fill="white"/>
<path d="M12.2947 7.9827C11.7776 7.9827 11.3489 7.55393 11.3489 7.03688V1.89163H6.20363C5.68658 1.89163 5.25781 1.46286 5.25781 0.945817C5.25781 0.42877 5.68658 0 6.20363 0H12.2947C12.8117 0 13.2405 0.42877 13.2405 0.945817V7.03688C13.2405 7.55393 12.8117 7.9827 12.2947 7.9827Z" fill="white"/>
</svg>
